<svg xmlns="http://www.w3.org/2000/svg" xmlns:xlink="http://www.w3.org/1999/xlink" width="53" height="53" viewBox="0 0 53 53">
  <defs>
    <linearGradient id="linear-gradient" x1="0.5" x2="0.157" y2="1" gradientUnits="objectBoundingBox">
      <stop offset="0" stop-color="#2834cf"/>
      <stop offset="0.447" stop-color="#b5147a"/>
      <stop offset="1" stop-color="#cbcb0e"/>
    </linearGradient>
  </defs>
  <g id="instagram" transform="translate(0.032 -0.444)">
    <rect id="Rectangle_8" data-name="Rectangle 8" width="53" height="53" rx="16" transform="translate(-0.032 0.444)" fill="url(#linear-gradient)"/>
    <path id="instagram-brands" d="M20.934,42.057A10.768,10.768,0,1,0,31.7,52.825,10.751,10.751,0,0,0,20.934,42.057Zm0,17.769a7,7,0,1,1,7-7A7.014,7.014,0,0,1,20.934,59.826Zm13.72-18.21A2.512,2.512,0,1,1,32.143,39.1,2.506,2.506,0,0,1,34.655,41.616Zm7.132,2.549c-.159-3.365-.928-6.345-3.393-8.8s-5.436-3.224-8.8-3.393c-3.468-.2-13.861-.2-17.329,0-3.355.159-6.335.928-8.8,3.383S.241,40.792.073,44.156c-.2,3.468-.2,13.861,0,17.329.159,3.365.928,6.345,3.393,8.8s5.436,3.224,8.8,3.393c3.468.2,13.861.2,17.329,0,3.365-.159,6.345-.928,8.8-3.393s3.224-5.436,3.393-8.8C41.984,58.017,41.984,47.633,41.787,44.165Zm-4.48,21.04A7.088,7.088,0,0,1,33.315,69.2c-2.765,1.1-9.325.843-12.38.843s-9.625.244-12.38-.843a7.088,7.088,0,0,1-3.992-3.992c-1.1-2.765-.843-9.325-.843-12.38s-.244-9.625.843-12.38a7.088,7.088,0,0,1,3.992-3.992c2.765-1.1,9.325-.843,12.38-.843s9.625-.244,12.38.843a7.088,7.088,0,0,1,3.992,3.992c1.1,2.765.843,9.325.843,12.38S38.4,62.45,37.307,65.205Z" transform="translate(5.336 -26.325)" fill="#fcfcfc"/>
  </g>
</svg>
