<svg xmlns="http://www.w3.org/2000/svg" width="53" height="53" viewBox="0 0 53 53">
  <g id="twittar" transform="translate(0.031 -0.444)">
    <rect id="Rectangle_7" data-name="Rectangle 7" width="53" height="53" rx="16" transform="translate(-0.031 0.444)" fill="#1e83dc"/>
    <path id="twitter-brands" d="M38.785,56.832c.027.384.027.768.027,1.152C38.812,69.7,29.9,83.191,13.6,83.191A25.037,25.037,0,0,1,0,79.214a18.326,18.326,0,0,0,2.139.11,17.743,17.743,0,0,0,11-3.785,8.875,8.875,0,0,1-8.284-6.144,11.175,11.175,0,0,0,1.673.137,9.371,9.371,0,0,0,2.331-.3,8.861,8.861,0,0,1-7.1-8.7v-.11a8.923,8.923,0,0,0,4,1.125A8.873,8.873,0,0,1,3.017,49.7a25.183,25.183,0,0,0,18.268,9.271,10,10,0,0,1-.219-2.03A8.868,8.868,0,0,1,36.4,50.88a17.443,17.443,0,0,0,5.623-2.139,8.836,8.836,0,0,1-3.895,4.882,17.761,17.761,0,0,0,5.1-1.371A19.045,19.045,0,0,1,38.785,56.832Z" transform="translate(4.544 -38.887)" fill="#fcfcfc"/>
  </g>
</svg>
